<?xml version="1.0" encoding="UTF-8"?>
<svg id="_レイヤー_2" data-name="レイヤー 2" xmlns="http://www.w3.org/2000/svg" viewBox="0 0 105.26 162.61">
  <defs>
    <style>
      .cls-1 {
        font-family: Nobel-Regular, Nobel;
        font-size: 72px;
      }
    </style>
  </defs>
  <g id="_レイヤー_1-2" data-name="レイヤー 1">
    <text class="cls-1" transform="translate(0 149)"><tspan x="0" y="0">alto</tspan></text>
    <path d="M44.35,69.23c-4.23-.49-7.19-2.87-9.61-6.24-4.84-6.71-14.05-9.1-21.49-5.72-7.67,3.49-11.98,11.79-10.28,19.79,1.8,8.49,8.85,14.37,18.95,14.43,5.04-.16,10.29-2.96,13.81-8.73,2.88-4.71,6.81-7.84,12.39-8.44,4.94-.53,9.97-.63,14.08,2.66,2.05,1.64,3.68,3.94,5.14,6.18,5.23,8.03,15.77,10.79,23.78,6.07,8.67-5.1,11.71-15.62,6.93-24.22-10.34-18.62-20.69-37.23-31.07-55.83C62.21,.61,51.32-2.52,42.97,2.2c-8.89,5.03-11.92,15.77-6.99,24.59,5.63,10.06,11.22,20.13,16.8,30.22,1.65,2.98,1.62,6.02-.3,8.83-1.93,2.84-4.79,3.79-8.14,3.4Z"/>
  </g>
</svg>