<?xml version="1.0" encoding="UTF-8"?>
<svg id="_レイヤー_2" data-name="レイヤー 2" xmlns="http://www.w3.org/2000/svg" viewBox="0 0 587.1 549.97">
  <g id="_レイヤー_1-2" data-name="レイヤー 1">
    <path d="M250.86,415.98c-25.44-2.95-43.17-17.26-57.77-37.48-29.11-40.31-84.4-54.69-129.09-34.37C17.95,365.07-8,414.99,2.21,463.02c10.84,51.03,53.18,86.35,113.88,86.7,30.28-.96,61.82-17.79,82.98-52.46,17.28-28.31,40.92-47.12,74.43-50.71,29.66-3.18,59.89-3.81,84.61,15.96,12.33,9.86,22.13,23.67,30.9,37.11,31.45,48.24,94.73,64.81,142.9,36.49,52.06-30.62,70.33-93.86,41.65-145.53-62.1-111.88-124.33-223.69-186.68-335.43C358.17,3.69,292.78-15.15,242.61,13.21c-53.43,30.2-71.65,94.75-42,147.75,33.8,60.43,67.39,120.97,100.93,181.54,9.91,17.9,9.71,36.15-1.78,53.05-11.59,17.05-28.77,22.77-48.9,20.43Z"/>
  </g>
</svg>